<svg version="1.1" id="Layer_1" xmlns="http://www.w3.org/2000/svg" xmlns:xlink="http://www.w3.org/1999/xlink" x="0px" y="0px"
	 width="100%" viewBox="0 0 2000 1500" enable-background="new 0 0 2000 1500" xml:space="preserve">
<path fill="#000000" opacity="1.000000" stroke="none" 
	d="
M1193.000000,1501.000000 
	C795.333435,1501.000000 398.166901,1501.000000 1.000266,1501.000000 
	C1.000178,1001.000244 1.000178,501.000549 1.000089,1.000602 
	C667.666199,1.000401 1334.332397,1.000401 2000.999023,1.000201 
	C2000.999268,500.999390 2000.999268,1000.998779 2000.999634,1500.999023 
	C1731.833374,1501.000000 1462.666626,1501.000000 1193.000000,1501.000000 
M868.503662,591.105469 
	C868.289185,591.115112 868.074707,591.124817 866.945740,591.029846 
	C816.795837,591.029846 766.645996,591.029846 716.244202,591.029846 
	C700.073608,639.877014 683.943420,688.602173 667.813232,737.327332 
	C667.492249,737.256470 667.171326,737.185547 666.850342,737.114685 
	C666.850342,688.529053 666.850342,639.943481 666.850342,591.262268 
	C650.440796,591.262268 634.363098,591.262268 618.119812,591.262268 
	C618.119812,698.883118 618.119812,806.276367 618.119812,913.831909 
	C634.562012,913.831909 650.797974,913.831909 667.490112,913.831909 
	C667.490112,864.462463 667.490112,815.337097 667.490112,766.211731 
	C667.784119,766.163208 668.078186,766.114746 668.372192,766.066223 
	C685.367554,815.403870 702.362854,864.741577 719.299622,913.909119 
	C785.768860,913.909119 851.697998,913.909119 918.074463,913.909119 
	C918.074463,863.093018 918.074463,812.523682 918.074463,761.513855 
	C925.831970,762.074158 933.152649,762.291748 940.387329,763.196838 
	C951.840149,764.629578 956.490906,768.981995 958.342163,780.515930 
	C959.418457,787.221375 959.638367,794.107971 959.732422,800.920044 
	C960.226562,836.740479 960.554016,872.563293 960.956848,908.385010 
	C960.976807,910.164307 961.160828,911.941711 961.271301,913.766113 
	C977.974365,913.766113 994.197388,913.766113 1010.341431,913.766113 
	C1010.031372,907.302002 1009.552368,901.147522 1009.474182,894.988037 
	C1009.216125,874.660889 1009.427063,854.322327 1008.835327,834.006348 
	C1008.326782,816.544128 1007.847351,798.998657 1005.726501,781.689575 
	C1003.706604,765.204651 999.863098,748.794556 980.282532,742.979919 
	C997.022095,734.599915 1001.846619,729.045105 1005.194458,710.946960 
	C1010.404846,682.780396 1009.567444,654.511963 1003.455322,626.596191 
	C999.732788,609.594238 989.482910,597.670776 971.902832,593.504456 
	C966.428711,592.207153 960.729248,591.256409 955.124939,591.214355 
	C926.466980,590.999023 897.806335,591.132629 868.503662,591.105469 
M556.054626,823.498169 
	C555.694885,813.515808 556.014343,803.452698 554.838806,793.567322 
	C552.112732,770.642944 546.885315,748.826843 522.215637,737.882996 
	C536.447266,731.207764 543.418884,719.643555 546.387878,705.554199 
	C551.710571,680.295349 551.848999,654.892517 545.852539,629.757874 
	C541.185669,610.196167 528.682800,597.759460 508.723236,593.805603 
	C500.930786,592.261902 492.910187,591.277527 484.976135,591.154175 
	C462.487427,590.804504 439.989746,591.026855 417.495605,591.042114 
	C416.242676,591.042969 414.989868,591.208557 413.806396,591.292542 
	C413.806396,699.089966 413.806396,806.467285 413.806396,914.082153 
	C426.455048,914.082153 438.777313,914.213562 451.095673,914.049927 
	C467.573242,913.830994 484.134033,914.318665 500.502930,912.809570 
	C523.693298,910.671570 540.009094,898.317749 548.175293,876.043945 
	C554.280151,859.392578 555.815430,842.044800 556.054626,823.498169 
M1593.664307,748.499817 
	C1593.664307,803.583862 1593.664307,858.667847 1593.664307,913.762512 
	C1621.163086,913.762512 1648.191040,914.947266 1675.070801,913.457703 
	C1707.490967,911.661072 1725.207886,895.098816 1732.040283,863.248230 
	C1737.657471,837.062805 1737.869385,810.599976 1733.657349,784.263245 
	C1730.496094,764.496033 1723.378784,746.690552 1702.118042,737.964600 
	C1716.721802,731.233948 1723.638916,719.403564 1726.652344,705.223083 
	C1731.588623,681.993835 1731.825439,658.487488 1727.203857,635.247864 
	C1721.717285,607.658081 1706.251587,593.592224 1678.181885,592.149841 
	C1650.427734,590.723633 1622.568115,591.351013 1594.754517,591.100769 
	C1594.472900,591.098206 1594.188354,591.410767 1593.664307,591.716858 
	C1593.664307,643.552856 1593.664307,695.526306 1593.664307,748.499817 
M1435.077148,791.500000 
	C1435.077148,724.756226 1435.077148,658.012390 1435.077148,591.311035 
	C1418.384766,591.311035 1402.308960,591.311035 1385.882324,591.311035 
	C1385.882324,634.840942 1385.882324,678.096497 1385.882324,721.572144 
	C1371.130981,721.572144 1356.734253,721.572144 1341.790771,721.572144 
	C1341.790771,677.955872 1341.790771,634.581787 1341.790771,591.334167 
	C1325.150269,591.334167 1309.058105,591.334167 1293.069336,591.334167 
	C1293.069336,699.024109 1293.069336,806.414856 1293.069336,913.814819 
	C1309.441406,913.814819 1325.517944,913.814819 1341.977783,913.814819 
	C1341.977783,863.816406 1341.977783,814.078613 1341.977783,764.179443 
	C1356.769043,764.179443 1371.173828,764.179443 1386.121826,764.179443 
	C1386.121826,814.255859 1386.121826,864.120422 1386.121826,913.755005 
	C1402.748169,913.755005 1418.829590,913.755005 1435.077148,913.755005 
	C1435.077148,873.122009 1435.077148,832.810974 1435.077148,791.500000 
M1443.163574,745.499939 
	C1443.163940,773.494934 1442.769165,801.497925 1443.340332,829.481262 
	C1443.604004,842.394592 1444.698730,855.484497 1447.272461,868.116150 
	C1452.395508,893.259399 1467.081421,910.225159 1493.042725,915.662720 
	C1506.539673,918.489624 1520.143799,918.544373 1533.760986,916.101379 
	C1556.616577,912.000916 1571.852905,899.165161 1579.307129,877.067505 
	C1584.600708,861.374756 1585.738159,845.148499 1585.751343,828.796997 
	C1585.813843,751.310120 1585.779663,673.823242 1585.779785,596.336365 
	C1585.779785,594.715759 1585.779785,593.095093 1585.779785,591.256836 
	C1569.208862,591.256836 1553.112305,591.256836 1536.495483,591.256836 
	C1536.495483,593.295288 1536.495483,595.256653 1536.495483,597.218079 
	C1536.495483,673.705139 1536.552246,750.192261 1536.427246,826.679077 
	C1536.410522,836.821472 1535.873413,847.003540 1534.844849,857.092590 
	C1533.775757,867.578674 1528.568970,873.490906 1520.382080,875.107239 
	C1505.302002,878.084534 1495.921265,871.686462 1494.132446,856.395447 
	C1492.993652,846.659546 1492.487305,836.797607 1492.470703,826.990784 
	C1492.341187,750.337341 1492.399048,673.683594 1492.399048,597.029907 
	C1492.399048,595.098083 1492.399048,593.166260 1492.399048,591.327271 
	C1475.675049,591.327271 1459.585083,591.327271 1443.163574,591.327271 
	C1443.163574,642.580750 1443.163574,693.540283 1443.163574,745.499939 
M1134.210938,629.369751 
	C1147.227783,628.136841 1153.321899,632.327759 1155.974365,644.942688 
	C1157.098511,650.289062 1157.812866,655.801392 1157.954102,661.257996 
	C1158.250610,672.703796 1158.044189,684.162659 1158.044189,695.719543 
	C1173.711792,695.719543 1188.607422,695.719543 1203.817383,695.719543 
	C1203.817383,688.641113 1204.299561,681.799561 1203.718994,675.049500 
	C1202.438110,660.157959 1201.802490,645.065247 1198.753784,630.504761 
	C1193.878662,607.223022 1179.687012,591.795898 1155.248169,588.577637 
	C1144.952271,587.221802 1134.280640,587.336365 1123.905518,588.234680 
	C1098.051025,590.473450 1081.291260,605.133728 1075.132690,630.279358 
	C1073.320557,637.678833 1072.239380,645.320618 1071.539429,652.917419 
	C1069.479126,675.277161 1071.934448,697.080994 1084.123047,716.400208 
	C1091.087524,727.439026 1099.680176,737.538635 1108.226929,747.469788 
	C1120.380371,761.591492 1133.930054,774.561890 1145.500732,789.122742 
	C1162.549438,810.577271 1163.262207,835.726746 1158.469116,861.419861 
	C1157.130493,868.596069 1153.156006,873.821228 1145.270142,875.211670 
	C1132.088135,877.535889 1123.502686,872.604797 1121.151001,859.348206 
	C1119.157104,848.107605 1118.648804,836.560059 1118.105103,825.118713 
	C1117.625366,815.021729 1118.004761,804.884033 1118.004761,794.597107 
	C1102.310913,794.597107 1087.073486,794.597107 1071.307983,794.597107 
	C1071.307983,803.640564 1070.783081,812.462585 1071.421875,821.199524 
	C1072.596680,837.267761 1073.198730,853.535950 1076.324707,869.266602 
	C1081.045532,893.024109 1094.548096,910.065247 1119.480469,915.589783 
	C1132.468018,918.467529 1145.557739,918.505981 1158.689087,916.214233 
	C1180.056274,912.485046 1194.216675,900.221069 1200.920288,879.823059 
	C1208.427734,856.978943 1209.671875,833.433105 1206.434570,809.716736 
	C1203.107178,785.340332 1191.358643,764.725525 1175.742432,746.363403 
	C1161.611450,729.747620 1146.760864,713.726929 1131.858276,697.789185 
	C1118.676025,683.691345 1115.403687,667.145325 1118.087280,648.738464 
	C1119.718628,637.549194 1124.168701,631.912720 1134.210938,629.369751 
M557.150818,902.478027 
	C557.150818,906.251160 557.150818,910.024353 557.150818,913.869507 
	C573.827942,913.869507 589.924316,913.869507 606.023926,913.869507 
	C606.023926,806.174316 606.023926,698.689514 606.023926,591.366211 
	C589.558838,591.366211 573.482483,591.366211 557.150818,591.366211 
	C557.150818,694.961182 557.150818,798.223389 557.150818,902.478027 
M296.065033,894.437073 
	C305.451538,890.826599 314.838043,887.216064 324.145020,883.636169 
	C332.984344,900.069092 346.135437,908.531250 364.301514,906.752930 
	C380.637604,905.153748 392.323425,896.015015 397.357635,880.306335 
	C403.485229,861.185913 396.864502,845.831604 381.219727,834.379395 
	C382.535400,830.894592 384.733063,827.702576 384.796143,824.468933 
	C385.140594,806.818604 384.960114,789.158020 384.960114,771.304443 
	C358.580658,759.163635 332.262177,747.050964 305.858826,734.899231 
	C318.714233,709.541321 331.313965,684.687744 343.868561,659.923157 
	C369.829498,666.576782 389.220764,658.414368 397.085815,637.819153 
	C404.349152,618.799561 396.339722,597.846069 378.241241,588.520020 
	C360.540863,579.398987 338.589691,585.170837 327.528687,601.854370 
	C315.078918,620.632629 319.748749,640.556458 340.906586,658.482361 
	C331.092926,677.836548 321.197174,697.194641 311.447754,716.626038 
	C302.280304,734.897583 293.441528,753.325806 280.715759,769.557861 
	C278.107056,772.885376 276.180359,776.964600 274.792084,780.991333 
	C270.549347,793.297852 279.291412,806.026001 292.207550,806.459595 
	C295.173737,806.559204 298.178650,805.505859 301.165741,804.983154 
	C301.076691,804.269226 300.987671,803.555359 300.898621,802.841431 
	C299.755585,802.789246 298.569946,802.513184 297.476379,802.721069 
	C290.302032,804.085144 284.248688,802.512573 279.916687,796.257141 
	C275.487396,789.861328 275.978729,783.315002 279.984436,777.078979 
	C285.979309,767.746216 292.297974,758.621521 298.887878,748.798706 
	C300.658295,752.362854 302.172668,755.411499 303.726257,758.539001 
	C294.278259,760.878296 290.847473,766.806641 294.466461,775.424805 
	C298.710632,785.531738 305.241577,794.158447 313.894928,800.997803 
	C317.292938,803.683472 321.024780,805.076416 325.181152,800.493835 
	C326.060638,803.896484 326.848206,806.451538 327.351746,809.061462 
	C327.698029,810.856201 327.164215,812.942505 327.865906,814.525085 
	C330.395386,820.229919 333.281799,825.776550 335.996765,831.308289 
	C320.442291,843.579468 314.641632,859.264404 317.720032,878.403259 
	C303.861053,883.812317 290.101501,888.749084 276.765045,894.643250 
	C272.589996,896.488464 269.553528,900.911743 266.010162,904.170349 
	C265.950195,904.225525 266.070648,904.476990 266.373352,905.812012 
	C276.121918,902.109558 285.748932,898.453308 296.065033,894.437073 
M1010.240051,627.319519 
	C1012.818237,654.058655 1015.396423,680.797791 1017.959229,707.377136 
	C1025.269897,707.377136 1031.871582,707.377136 1038.678467,707.377136 
	C1042.657104,668.504639 1046.607666,629.905884 1050.556152,591.326965 
	C1035.595459,591.326965 1021.352844,591.326965 1006.956909,591.326965 
	C1008.041748,603.223755 1009.098450,614.812866 1010.240051,627.319519 
M290.793884,721.410339 
	C289.573853,721.545349 288.353790,721.680298 286.291595,721.908508 
	C287.387756,725.859863 287.863770,729.524536 289.397827,732.673767 
	C292.061249,738.141418 297.209167,738.246948 299.808594,732.843079 
	C301.419525,729.494202 301.809937,725.558228 302.869812,721.409912 
	C298.281555,721.409912 294.995239,721.409912 290.793884,721.410339 
z"/>
<path fill="#FEFEFE" opacity="1.000000" stroke="none" 
	d="
M869.146667,591.144287 
	C897.806335,591.132629 926.466980,590.999023 955.124939,591.214355 
	C960.729248,591.256409 966.428711,592.207153 971.902832,593.504456 
	C989.482910,597.670776 999.732788,609.594238 1003.455322,626.596191 
	C1009.567444,654.511963 1010.404846,682.780396 1005.194458,710.946960 
	C1001.846619,729.045105 997.022095,734.599915 980.282532,742.979919 
	C999.863098,748.794556 1003.706604,765.204651 1005.726501,781.689575 
	C1007.847351,798.998657 1008.326782,816.544128 1008.835327,834.006348 
	C1009.427063,854.322327 1009.216125,874.660889 1009.474182,894.988037 
	C1009.552368,901.147522 1010.031372,907.302002 1010.341431,913.766113 
	C994.197388,913.766113 977.974365,913.766113 961.271301,913.766113 
	C961.160828,911.941711 960.976807,910.164307 960.956848,908.385010 
	C960.554016,872.563293 960.226562,836.740479 959.732422,800.920044 
	C959.638367,794.107971 959.418457,787.221375 958.342163,780.515930 
	C956.490906,768.981995 951.840149,764.629578 940.387329,763.196838 
	C933.152649,762.291748 925.831970,762.074158 918.074463,761.513855 
	C918.074463,812.523682 918.074463,863.093018 918.074463,913.909119 
	C851.697998,913.909119 785.768860,913.909119 719.299622,913.909119 
	C702.362854,864.741577 685.367554,815.403870 668.372192,766.066223 
	C668.078186,766.114746 667.784119,766.163208 667.490112,766.211731 
	C667.490112,815.337097 667.490112,864.462463 667.490112,913.831909 
	C650.797974,913.831909 634.562012,913.831909 618.119812,913.831909 
	C618.119812,806.276367 618.119812,698.883118 618.119812,591.262268 
	C634.363098,591.262268 650.440796,591.262268 666.850342,591.262268 
	C666.850342,639.943481 666.850342,688.529053 666.850342,737.114685 
	C667.171326,737.185547 667.492249,737.256470 667.813232,737.327332 
	C683.943420,688.602173 700.073608,639.877014 716.244202,591.029846 
	C766.645996,591.029846 816.795837,591.029846 867.439575,591.540955 
	C867.977051,605.717407 868.020691,619.382812 867.613525,633.202515 
	C847.888550,633.356873 828.614441,633.356873 809.440857,633.356873 
	C809.440857,665.071289 809.440857,696.121277 809.440857,727.658325 
	C828.193298,727.658325 846.587219,727.658325 865.050903,727.658325 
	C865.050903,741.592896 865.050903,755.036011 865.050903,769.055359 
	C846.337646,769.055359 827.800537,769.055359 809.351562,769.055359 
	C809.351562,803.544434 809.351562,837.455688 809.351562,871.405884 
	C829.329224,871.405884 849.031555,871.405884 868.913208,871.405884 
	C868.913208,869.196594 868.913208,867.369019 868.913208,865.541382 
	C868.913208,790.068604 868.914490,714.595886 868.906738,639.123108 
	C868.906555,637.126526 868.809570,635.129944 868.875549,632.669312 
	C869.044495,618.518311 869.095581,604.831299 869.146667,591.144287 
M723.259888,778.240112 
	C735.252625,812.105835 747.245422,845.971558 759.238159,879.837280 
	C759.405884,879.789795 759.573608,879.742371 759.741333,879.694885 
	C759.741333,791.289917 759.741333,702.884949 759.741333,613.165894 
	C758.840027,615.764160 758.358704,617.115967 757.901123,618.475830 
	C744.511230,658.275757 731.342896,698.152649 717.562683,737.817017 
	C714.572144,746.424805 713.390686,754.112366 717.672607,762.499084 
	C720.065369,767.185791 721.290710,772.468445 723.259888,778.240112 
M940.563599,723.143616 
	C950.204712,722.328491 955.764709,718.461243 956.795898,708.735107 
	C958.473572,692.912720 959.021851,676.940979 959.341553,661.018127 
	C959.476685,654.289001 958.247559,647.434570 956.855469,640.801453 
	C955.593018,634.786499 951.326904,630.683228 945.141479,630.037964 
	C936.303955,629.116028 927.384338,628.981323 918.450439,628.507812 
	C918.450439,660.671143 918.450439,691.845215 918.450439,723.192017 
	C925.738708,723.192017 932.710449,723.192017 940.563599,723.143616 
z"/>
<path fill="#FDFDFD" opacity="1.000000" stroke="none" 
	d="
M556.048828,823.997559 
	C555.815430,842.044800 554.280151,859.392578 548.175293,876.043945 
	C540.009094,898.317749 523.693298,910.671570 500.502930,912.809570 
	C484.134033,914.318665 467.573242,913.830994 451.095673,914.049927 
	C438.777313,914.213562 426.455048,914.082153 413.806396,914.082153 
	C413.806396,806.467285 413.806396,699.089966 413.806396,591.292542 
	C414.989868,591.208557 416.242676,591.042969 417.495605,591.042114 
	C439.989746,591.026855 462.487427,590.804504 484.976135,591.154175 
	C492.910187,591.277527 500.930786,592.261902 508.723236,593.805603 
	C528.682800,597.759460 541.185669,610.196167 545.852539,629.757874 
	C551.848999,654.892517 551.710571,680.295349 546.387878,705.554199 
	C543.418884,719.643555 536.447266,731.207764 522.215637,737.882996 
	C546.885315,748.826843 552.112732,770.642944 554.838806,793.567322 
	C556.014343,803.452698 555.694885,813.515808 556.048828,823.997559 
M504.021606,775.700989 
	C502.181824,767.066345 498.040558,760.082703 488.531311,759.211609 
	C480.161591,758.444946 471.666107,759.051331 463.030823,759.051331 
	C463.030823,797.935303 463.030823,836.779907 463.030823,875.795227 
	C470.091095,875.795227 476.906281,876.132507 483.674957,875.715149 
	C493.489563,875.110046 500.088196,869.910461 502.967773,860.395691 
	C503.878357,857.386841 504.914398,854.276062 505.012085,851.184143 
	C505.595123,832.736450 506.140900,814.281433 506.212311,795.826965 
	C506.237152,789.395813 504.876892,782.959229 504.021606,775.700989 
M477.441711,629.670715 
	C472.669861,629.670715 467.898010,629.670715 462.988831,629.670715 
	C462.988831,660.565063 462.988831,690.947021 462.988831,721.811523 
	C468.986328,721.811523 474.771240,721.883179 480.553802,721.796875 
	C493.178070,721.608459 498.908051,717.086243 499.894745,704.552429 
	C501.015717,690.312317 501.091187,675.978638 501.267334,661.681213 
	C501.336578,656.059998 500.879486,650.350769 499.901581,644.816040 
	C498.142029,634.857178 492.949707,630.559021 482.907745,629.852112 
	C481.414398,629.746948 479.914917,629.729309 477.441711,629.670715 
z"/>
<path fill="#FEFEFE" opacity="1.000000" stroke="none" 
	d="
M1593.664307,747.999756 
	C1593.664307,695.526306 1593.664307,643.552856 1593.664307,591.716858 
	C1594.188354,591.410767 1594.472900,591.098206 1594.754517,591.100769 
	C1622.568115,591.351013 1650.427734,590.723633 1678.181885,592.149841 
	C1706.251587,593.592224 1721.717285,607.658081 1727.203857,635.247864 
	C1731.825439,658.487488 1731.588623,681.993835 1726.652344,705.223083 
	C1723.638916,719.403564 1716.721802,731.233948 1702.118042,737.964600 
	C1723.378784,746.690552 1730.496094,764.496033 1733.657349,784.263245 
	C1737.869385,810.599976 1737.657471,837.062805 1732.040283,863.248230 
	C1725.207886,895.098816 1707.490967,911.661072 1675.070801,913.457703 
	C1648.191040,914.947266 1621.163086,913.762512 1593.664307,913.762512 
	C1593.664307,858.667847 1593.664307,803.583862 1593.664307,747.999756 
M1666.198853,758.845459 
	C1658.583252,758.845459 1650.967773,758.845459 1643.120117,758.845459 
	C1643.120117,797.885193 1643.120117,836.740662 1643.120117,875.763489 
	C1650.307129,875.763489 1657.286987,876.148193 1664.207031,875.670410 
	C1673.807861,875.007568 1680.220215,869.779541 1683.053467,860.479370 
	C1683.873657,857.787231 1684.904541,855.021667 1684.986572,852.264404 
	C1685.569702,832.657471 1686.247803,813.043091 1686.196045,793.432983 
	C1686.177490,786.382751 1684.634033,779.246582 1683.062134,772.313782 
	C1681.199829,764.099731 1675.512817,759.712463 1666.198853,758.845459 
M1666.513672,721.230774 
	C1674.715576,719.547363 1678.698120,715.540100 1679.858643,706.149170 
	C1680.897461,697.743408 1681.476196,689.221008 1681.425781,680.755005 
	C1681.353638,668.625427 1681.119751,656.436218 1679.821289,644.394714 
	C1678.864868,635.525513 1673.691284,630.828857 1665.549438,630.173950 
	C1658.164795,629.580017 1650.694458,630.048401 1643.114014,630.048401 
	C1643.114014,660.551331 1643.114014,690.958313 1643.114014,721.369202 
	C1650.786621,721.369202 1658.227295,721.369202 1666.513672,721.230774 
z"/>
<path fill="#FFFFFF" opacity="1.000000" stroke="none" 
	d="
M1435.077148,792.000000 
	C1435.077148,832.810974 1435.077148,873.122009 1435.077148,913.755005 
	C1418.829590,913.755005 1402.748169,913.755005 1386.121826,913.755005 
	C1386.121826,864.120422 1386.121826,814.255859 1386.121826,764.179443 
	C1371.173828,764.179443 1356.769043,764.179443 1341.977783,764.179443 
	C1341.977783,814.078613 1341.977783,863.816406 1341.977783,913.814819 
	C1325.517944,913.814819 1309.441406,913.814819 1293.069336,913.814819 
	C1293.069336,806.414856 1293.069336,699.024109 1293.069336,591.334167 
	C1309.058105,591.334167 1325.150269,591.334167 1341.790771,591.334167 
	C1341.790771,634.581787 1341.790771,677.955872 1341.790771,721.572144 
	C1356.734253,721.572144 1371.130981,721.572144 1385.882324,721.572144 
	C1385.882324,678.096497 1385.882324,634.840942 1385.882324,591.311035 
	C1402.308960,591.311035 1418.384766,591.311035 1435.077148,591.311035 
	C1435.077148,658.012390 1435.077148,724.756226 1435.077148,792.000000 
z"/>
<path fill="#FDFDFD" opacity="1.000000" stroke="none" 
	d="
M1443.163574,744.999878 
	C1443.163574,693.540283 1443.163574,642.580750 1443.163574,591.327271 
	C1459.585083,591.327271 1475.675049,591.327271 1492.399048,591.327271 
	C1492.399048,593.166260 1492.399048,595.098083 1492.399048,597.029907 
	C1492.399048,673.683594 1492.341187,750.337341 1492.470703,826.990784 
	C1492.487305,836.797607 1492.993652,846.659546 1494.132446,856.395447 
	C1495.921265,871.686462 1505.302002,878.084534 1520.382080,875.107239 
	C1528.568970,873.490906 1533.775757,867.578674 1534.844849,857.092590 
	C1535.873413,847.003540 1536.410522,836.821472 1536.427246,826.679077 
	C1536.552246,750.192261 1536.495483,673.705139 1536.495483,597.218079 
	C1536.495483,595.256653 1536.495483,593.295288 1536.495483,591.256836 
	C1553.112305,591.256836 1569.208862,591.256836 1585.779785,591.256836 
	C1585.779785,593.095093 1585.779785,594.715759 1585.779785,596.336365 
	C1585.779663,673.823242 1585.813843,751.310120 1585.751343,828.796997 
	C1585.738159,845.148499 1584.600708,861.374756 1579.307129,877.067505 
	C1571.852905,899.165161 1556.616577,912.000916 1533.760986,916.101379 
	C1520.143799,918.544373 1506.539673,918.489624 1493.042725,915.662720 
	C1467.081421,910.225159 1452.395508,893.259399 1447.272461,868.116150 
	C1444.698730,855.484497 1443.604004,842.394592 1443.340332,829.481262 
	C1442.769165,801.497925 1443.163940,773.494934 1443.163574,744.999878 
z"/>
<path fill="#FDFDFD" opacity="1.000000" stroke="none" 
	d="
M1133.810547,629.492310 
	C1124.168701,631.912720 1119.718628,637.549194 1118.087280,648.738464 
	C1115.403687,667.145325 1118.676025,683.691345 1131.858276,697.789185 
	C1146.760864,713.726929 1161.611450,729.747620 1175.742432,746.363403 
	C1191.358643,764.725525 1203.107178,785.340332 1206.434570,809.716736 
	C1209.671875,833.433105 1208.427734,856.978943 1200.920288,879.823059 
	C1194.216675,900.221069 1180.056274,912.485046 1158.689087,916.214233 
	C1145.557739,918.505981 1132.468018,918.467529 1119.480469,915.589783 
	C1094.548096,910.065247 1081.045532,893.024109 1076.324707,869.266602 
	C1073.198730,853.535950 1072.596680,837.267761 1071.421875,821.199524 
	C1070.783081,812.462585 1071.307983,803.640564 1071.307983,794.597107 
	C1087.073486,794.597107 1102.310913,794.597107 1118.004761,794.597107 
	C1118.004761,804.884033 1117.625366,815.021729 1118.105103,825.118713 
	C1118.648804,836.560059 1119.157104,848.107605 1121.151001,859.348206 
	C1123.502686,872.604797 1132.088135,877.535889 1145.270142,875.211670 
	C1153.156006,873.821228 1157.130493,868.596069 1158.469116,861.419861 
	C1163.262207,835.726746 1162.549438,810.577271 1145.500732,789.122742 
	C1133.930054,774.561890 1120.380371,761.591492 1108.226929,747.469788 
	C1099.680176,737.538635 1091.087524,727.439026 1084.123047,716.400208 
	C1071.934448,697.080994 1069.479126,675.277161 1071.539429,652.917419 
	C1072.239380,645.320618 1073.320557,637.678833 1075.132690,630.279358 
	C1081.291260,605.133728 1098.051025,590.473450 1123.905518,588.234680 
	C1134.280640,587.336365 1144.952271,587.221802 1155.248169,588.577637 
	C1179.687012,591.795898 1193.878662,607.223022 1198.753784,630.504761 
	C1201.802490,645.065247 1202.438110,660.157959 1203.718994,675.049500 
	C1204.299561,681.799561 1203.817383,688.641113 1203.817383,695.719543 
	C1188.607422,695.719543 1173.711792,695.719543 1158.044189,695.719543 
	C1158.044189,684.162659 1158.250610,672.703796 1157.954102,661.257996 
	C1157.812866,655.801392 1157.098511,650.289062 1155.974365,644.942688 
	C1153.321899,632.327759 1147.227783,628.136841 1133.810547,629.492310 
z"/>
<path fill="#FEFEFE" opacity="1.000000" stroke="none" 
	d="
M557.150818,901.981812 
	C557.150818,798.223389 557.150818,694.961182 557.150818,591.366211 
	C573.482483,591.366211 589.558838,591.366211 606.023926,591.366211 
	C606.023926,698.689514 606.023926,806.174316 606.023926,913.869507 
	C589.924316,913.869507 573.827942,913.869507 557.150818,913.869507 
	C557.150818,910.024353 557.150818,906.251160 557.150818,901.981812 
z"/>
<path fill="#F8F8F8" opacity="1.000000" stroke="none" 
	d="
M295.720490,894.617065 
	C285.748932,898.453308 276.121918,902.109558 266.373352,905.812012 
	C266.070648,904.476990 265.950195,904.225525 266.010162,904.170349 
	C269.553528,900.911743 272.589996,896.488464 276.765045,894.643250 
	C290.101501,888.749084 303.861053,883.812317 317.720032,878.403259 
	C314.641632,859.264404 320.442291,843.579468 335.996765,831.308289 
	C333.281799,825.776550 330.395386,820.229919 327.865906,814.525085 
	C327.164215,812.942505 327.698029,810.856201 327.351746,809.061462 
	C326.848206,806.451538 326.060638,803.896484 325.181152,800.493835 
	C321.024780,805.076416 317.292938,803.683472 313.894928,800.997803 
	C305.241577,794.158447 298.710632,785.531738 294.466461,775.424805 
	C290.847473,766.806641 294.278259,760.878296 303.726257,758.539001 
	C302.172668,755.411499 300.658295,752.362854 298.887878,748.798706 
	C292.297974,758.621521 285.979309,767.746216 279.984436,777.078979 
	C275.978729,783.315002 275.487396,789.861328 279.916687,796.257141 
	C284.248688,802.512573 290.302032,804.085144 297.476379,802.721069 
	C298.569946,802.513184 299.755585,802.789246 300.898621,802.841431 
	C300.987671,803.555359 301.076691,804.269226 301.165741,804.983154 
	C298.178650,805.505859 295.173737,806.559204 292.207550,806.459595 
	C279.291412,806.026001 270.549347,793.297852 274.792084,780.991333 
	C276.180359,776.964600 278.107056,772.885376 280.715759,769.557861 
	C293.441528,753.325806 302.280304,734.897583 311.447754,716.626038 
	C321.197174,697.194641 331.092926,677.836548 340.906586,658.482361 
	C319.748749,640.556458 315.078918,620.632629 327.528687,601.854370 
	C338.589691,585.170837 360.540863,579.398987 378.241241,588.520020 
	C396.339722,597.846069 404.349152,618.799561 397.085815,637.819153 
	C389.220764,658.414368 369.829498,666.576782 343.868561,659.923157 
	C331.313965,684.687744 318.714233,709.541321 305.858826,734.899231 
	C332.262177,747.050964 358.580658,759.163635 384.960114,771.304443 
	C384.960114,789.158020 385.140594,806.818604 384.796143,824.468933 
	C384.733063,827.702576 382.535400,830.894592 381.219727,834.379395 
	C396.864502,845.831604 403.485229,861.185913 397.357635,880.306335 
	C392.323425,896.015015 380.637604,905.153748 364.301514,906.752930 
	C346.135437,908.531250 332.984344,900.069092 324.145020,883.636169 
	C314.838043,887.216064 305.451538,890.826599 295.720490,894.617065 
M374.249573,653.962097 
	C375.418945,653.333618 376.620331,652.757690 377.752808,652.068542 
	C390.304382,644.430847 396.367310,629.564392 392.723572,615.409180 
	C389.143005,601.499268 377.070923,591.617065 362.390533,590.578552 
	C348.223419,589.576355 334.718445,598.311401 329.492554,611.857239 
	C323.594116,627.146362 330.546967,646.305115 344.230438,651.909912 
	C347.290039,645.869873 350.544098,639.892090 353.322418,633.700867 
	C354.204956,631.734253 354.268951,629.127441 353.919067,626.939697 
	C353.270966,622.887329 355.068359,619.328674 358.853119,618.392151 
	C362.256897,617.549866 366.016510,619.954773 366.826416,623.492371 
	C367.665680,627.157898 365.188324,630.510193 361.130219,631.458618 
	C359.847809,631.758301 358.056030,632.191895 357.550323,633.131165 
	C353.894226,639.921021 350.508209,646.856323 346.929413,653.958496 
	C356.131226,657.874634 364.804779,657.956787 374.249573,653.962097 
M330.787292,805.694702 
	C335.085144,814.451294 339.382996,823.207947 343.799713,832.206726 
	C355.354919,827.320129 366.632446,827.699219 378.549194,832.862915 
	C379.719391,828.971069 381.546936,825.595215 381.620667,822.181458 
	C381.944061,807.207275 381.661499,792.221008 381.842133,777.242004 
	C381.878815,774.200928 380.711914,772.936035 378.132507,771.768311 
	C363.019806,764.926819 347.993500,757.894653 332.923096,750.959290 
	C327.501312,748.464172 322.155487,745.736816 316.562378,743.698914 
	C310.252075,741.399597 304.103363,746.182068 305.220001,752.461731 
	C305.720245,755.274719 306.910614,758.665955 308.967194,760.378357 
	C317.280548,767.300415 320.166229,776.983887 323.542175,786.521973 
	C325.740051,792.731628 328.099640,798.884155 330.787292,805.694702 
M380.156433,862.617004 
	C378.944519,857.837402 376.357239,854.060425 371.752655,850.817200 
	C370.081512,856.785156 364.566193,860.492981 366.570862,867.605469 
	C367.829437,872.070984 361.780945,875.428955 357.171326,873.480713 
	C355.889740,872.939026 354.312653,871.958008 353.225220,872.300964 
	C349.387787,873.511353 345.704071,875.208862 341.903870,876.745178 
	C347.577759,886.725464 357.412201,890.636047 367.134796,887.192871 
	C377.073547,883.673157 382.231262,874.422791 380.156433,862.617004 
M355.033295,862.687683 
	C353.121887,858.746826 351.210480,854.805908 349.267792,850.800537 
	C341.054504,856.508118 338.246490,864.142761 340.925232,873.474609 
	C346.081757,870.594116 353.575470,871.559753 355.033295,862.687683 
M353.312195,851.687744 
	C354.504425,854.059387 355.637665,856.463074 356.902863,858.795166 
	C358.733337,862.169067 362.110168,862.315674 363.967651,859.048767 
	C365.751465,855.911438 367.328064,852.656250 369.755157,847.994019 
	C364.113342,847.994019 359.445343,847.881042 354.795959,848.124023 
	C354.148163,848.157898 353.592041,849.944336 353.312195,851.687744 
z"/>
<path fill="#FDFDFD" opacity="1.000000" stroke="none" 
	d="
M1010.197632,626.860718 
	C1009.098450,614.812866 1008.041748,603.223755 1006.956909,591.326965 
	C1021.352844,591.326965 1035.595459,591.326965 1050.556152,591.326965 
	C1046.607666,629.905884 1042.657104,668.504639 1038.678467,707.377136 
	C1031.871582,707.377136 1025.269897,707.377136 1017.959229,707.377136 
	C1015.396423,680.797791 1012.818237,654.058655 1010.197632,626.860718 
z"/>
<path fill="#F8F8F8" opacity="1.000000" stroke="none" 
	d="
M291.251404,721.410156 
	C294.995239,721.409912 298.281555,721.409912 302.869812,721.409912 
	C301.809937,725.558228 301.419525,729.494202 299.808594,732.843079 
	C297.209167,738.246948 292.061249,738.141418 289.397827,732.673767 
	C287.863770,729.524536 287.387756,725.859863 286.291595,721.908508 
	C288.353790,721.680298 289.573853,721.545349 291.251404,721.410156 
z"/>
<path fill="#696969" opacity="1.000000" stroke="none" 
	d="
M868.825195,591.124878 
	C869.095581,604.831299 869.044495,618.518311 868.690918,632.739868 
	C868.388428,633.274414 868.064392,633.048157 868.064392,633.048157 
	C868.020691,619.382812 867.977051,605.717407 867.896729,591.593323 
	C868.074707,591.124817 868.289185,591.115112 868.825195,591.124878 
z"/>
<path fill="#020202" opacity="1.000000" stroke="none" 
	d="
M867.613525,633.202515 
	C868.064392,633.048157 868.388428,633.274414 868.573059,633.203857 
	C868.809570,635.129944 868.906555,637.126526 868.906738,639.123108 
	C868.914490,714.595886 868.913208,790.068604 868.913208,865.541382 
	C868.913208,867.369019 868.913208,869.196594 868.913208,871.405884 
	C849.031555,871.405884 829.329224,871.405884 809.351562,871.405884 
	C809.351562,837.455688 809.351562,803.544434 809.351562,769.055359 
	C827.800537,769.055359 846.337646,769.055359 865.050903,769.055359 
	C865.050903,755.036011 865.050903,741.592896 865.050903,727.658325 
	C846.587219,727.658325 828.193298,727.658325 809.440857,727.658325 
	C809.440857,696.121277 809.440857,665.071289 809.440857,633.356873 
	C828.614441,633.356873 847.888550,633.356873 867.613525,633.202515 
z"/>
<path fill="#020202" opacity="1.000000" stroke="none" 
	d="
M723.151001,777.861328 
	C721.290710,772.468445 720.065369,767.185791 717.672607,762.499084 
	C713.390686,754.112366 714.572144,746.424805 717.562683,737.817017 
	C731.342896,698.152649 744.511230,658.275757 757.901123,618.475830 
	C758.358704,617.115967 758.840027,615.764160 759.741333,613.165894 
	C759.741333,702.884949 759.741333,791.289917 759.741333,879.694885 
	C759.573608,879.742371 759.405884,879.789795 759.238159,879.837280 
	C747.245422,845.971558 735.252625,812.105835 723.151001,777.861328 
z"/>
<path fill="#030303" opacity="1.000000" stroke="none" 
	d="
M940.122925,723.167847 
	C932.710449,723.192017 925.738708,723.192017 918.450439,723.192017 
	C918.450439,691.845215 918.450439,660.671143 918.450439,628.507812 
	C927.384338,628.981323 936.303955,629.116028 945.141479,630.037964 
	C951.326904,630.683228 955.593018,634.786499 956.855469,640.801453 
	C958.247559,647.434570 959.476685,654.289001 959.341553,661.018127 
	C959.021851,676.940979 958.473572,692.912720 956.795898,708.735107 
	C955.764709,718.461243 950.204712,722.328491 940.122925,723.167847 
z"/>
<path fill="#010101" opacity="1.000000" stroke="none" 
	d="
M504.085449,776.113037 
	C504.876892,782.959229 506.237152,789.395813 506.212311,795.826965 
	C506.140900,814.281433 505.595123,832.736450 505.012085,851.184143 
	C504.914398,854.276062 503.878357,857.386841 502.967773,860.395691 
	C500.088196,869.910461 493.489563,875.110046 483.674957,875.715149 
	C476.906281,876.132507 470.091095,875.795227 463.030823,875.795227 
	C463.030823,836.779907 463.030823,797.935303 463.030823,759.051331 
	C471.666107,759.051331 480.161591,758.444946 488.531311,759.211609 
	C498.040558,760.082703 502.181824,767.066345 504.085449,776.113037 
z"/>
<path fill="#010101" opacity="1.000000" stroke="none" 
	d="
M477.929993,629.670898 
	C479.914917,629.729309 481.414398,629.746948 482.907745,629.852112 
	C492.949707,630.559021 498.142029,634.857178 499.901581,644.816040 
	C500.879486,650.350769 501.336578,656.059998 501.267334,661.681213 
	C501.091187,675.978638 501.015717,690.312317 499.894745,704.552429 
	C498.908051,717.086243 493.178070,721.608459 480.553802,721.796875 
	C474.771240,721.883179 468.986328,721.811523 462.988831,721.811523 
	C462.988831,690.947021 462.988831,660.565063 462.988831,629.670715 
	C467.898010,629.670715 472.669861,629.670715 477.929993,629.670898 
z"/>
<path fill="#010101" opacity="1.000000" stroke="none" 
	d="
M1666.656372,758.876709 
	C1675.512817,759.712463 1681.199829,764.099731 1683.062134,772.313782 
	C1684.634033,779.246582 1686.177490,786.382751 1686.196045,793.432983 
	C1686.247803,813.043091 1685.569702,832.657471 1684.986572,852.264404 
	C1684.904541,855.021667 1683.873657,857.787231 1683.053467,860.479370 
	C1680.220215,869.779541 1673.807861,875.007568 1664.207031,875.670410 
	C1657.286987,876.148193 1650.307129,875.763489 1643.120117,875.763489 
	C1643.120117,836.740662 1643.120117,797.885193 1643.120117,758.845459 
	C1650.967773,758.845459 1658.583252,758.845459 1666.656372,758.876709 
z"/>
<path fill="#020202" opacity="1.000000" stroke="none" 
	d="
M1666.090820,721.299988 
	C1658.227295,721.369202 1650.786621,721.369202 1643.114014,721.369202 
	C1643.114014,690.958313 1643.114014,660.551331 1643.114014,630.048401 
	C1650.694458,630.048401 1658.164795,629.580017 1665.549438,630.173950 
	C1673.691284,630.828857 1678.864868,635.525513 1679.821289,644.394714 
	C1681.119751,656.436218 1681.353638,668.625427 1681.425781,680.755005 
	C1681.476196,689.221008 1680.897461,697.743408 1679.858643,706.149170 
	C1678.698120,715.540100 1674.715576,719.547363 1666.090820,721.299988 
z"/>
<path fill="#030303" opacity="1.000000" stroke="none" 
	d="
M373.881317,654.081543 
	C364.804779,657.956787 356.131226,657.874634 346.929413,653.958496 
	C350.508209,646.856323 353.894226,639.921021 357.550323,633.131165 
	C358.056030,632.191895 359.847809,631.758301 361.130219,631.458618 
	C365.188324,630.510193 367.665680,627.157898 366.826416,623.492371 
	C366.016510,619.954773 362.256897,617.549866 358.853119,618.392151 
	C355.068359,619.328674 353.270966,622.887329 353.919067,626.939697 
	C354.268951,629.127441 354.204956,631.734253 353.322418,633.700867 
	C350.544098,639.892090 347.290039,645.869873 344.230438,651.909912 
	C330.546967,646.305115 323.594116,627.146362 329.492554,611.857239 
	C334.718445,598.311401 348.223419,589.576355 362.390533,590.578552 
	C377.070923,591.617065 389.143005,601.499268 392.723572,615.409180 
	C396.367310,629.564392 390.304382,644.430847 377.752808,652.068542 
	C376.620331,652.757690 375.418945,653.333618 373.881317,654.081543 
z"/>
<path fill="#080808" opacity="1.000000" stroke="none" 
	d="
M330.587036,805.378479 
	C328.099640,798.884155 325.740051,792.731628 323.542175,786.521973 
	C320.166229,776.983887 317.280548,767.300415 308.967194,760.378357 
	C306.910614,758.665955 305.720245,755.274719 305.220001,752.461731 
	C304.103363,746.182068 310.252075,741.399597 316.562378,743.698914 
	C322.155487,745.736816 327.501312,748.464172 332.923096,750.959290 
	C347.993500,757.894653 363.019806,764.926819 378.132507,771.768311 
	C380.711914,772.936035 381.878815,774.200928 381.842133,777.242004 
	C381.661499,792.221008 381.944061,807.207275 381.620667,822.181458 
	C381.546936,825.595215 379.719391,828.971069 378.549194,832.862915 
	C366.632446,827.699219 355.354919,827.320129 343.799713,832.206726 
	C339.382996,823.207947 335.085144,814.451294 330.587036,805.378479 
M349.433472,793.903931 
	C347.105194,794.775513 344.694275,795.475220 342.462830,796.548157 
	C332.562805,801.308899 332.472778,801.718872 338.284241,810.717346 
	C338.915100,811.694092 339.652344,812.620911 340.148560,813.662231 
	C341.730286,816.981445 343.814087,816.901367 346.428253,814.843811 
	C350.154022,811.911255 353.954315,809.073425 357.918365,806.045837 
	C357.544891,808.188782 357.074432,810.115356 356.892883,812.068787 
	C356.231201,819.187561 360.748230,824.739502 367.438843,825.155396 
	C374.557465,825.597900 379.901184,820.733582 379.977966,813.413696 
	C380.093201,802.431152 380.028809,791.446411 379.976166,780.462830 
	C379.956421,776.341919 377.983551,773.419983 373.960297,772.300415 
	C370.156189,771.241821 367.092346,772.629517 364.909607,775.875488 
	C363.427094,778.080139 362.165009,780.442200 360.580627,782.567017 
	C358.102325,785.890747 356.606232,789.099609 359.842926,792.856689 
	C360.310760,793.399597 359.907806,794.692688 359.907806,796.294312 
	C358.258698,794.248962 357.159729,792.885925 356.000366,791.447998 
	C353.880890,792.237732 352.026398,792.928711 349.433472,793.903931 
M345.913635,761.560547 
	C343.642761,759.584473 341.949768,759.901550 340.425903,762.601501 
	C338.802277,765.478088 336.940704,768.231140 335.038940,770.936768 
	C333.503387,773.121399 333.405945,774.807251 336.055359,776.111206 
	C342.654053,779.358887 349.236969,782.638733 355.943451,785.963745 
	C358.446106,782.103271 360.382324,779.116516 362.702484,775.537537 
	C357.097504,770.836914 351.805115,766.398499 345.913635,761.560547 
z"/>
<path fill="#030303" opacity="1.000000" stroke="none" 
	d="
M380.277802,863.010254 
	C382.231262,874.422791 377.073547,883.673157 367.134796,887.192871 
	C357.412201,890.636047 347.577759,886.725464 341.903870,876.745178 
	C345.704071,875.208862 349.387787,873.511353 353.225220,872.300964 
	C354.312653,871.958008 355.889740,872.939026 357.171326,873.480713 
	C361.780945,875.428955 367.829437,872.070984 366.570862,867.605469 
	C364.566193,860.492981 370.081512,856.785156 371.752655,850.817200 
	C376.357239,854.060425 378.944519,857.837402 380.277802,863.010254 
z"/>
<path fill="#080808" opacity="1.000000" stroke="none" 
	d="
M355.063538,863.081421 
	C353.575470,871.559753 346.081757,870.594116 340.925232,873.474609 
	C338.246490,864.142761 341.054504,856.508118 349.267792,850.800537 
	C351.210480,854.805908 353.121887,858.746826 355.063538,863.081421 
z"/>
<path fill="#080808" opacity="1.000000" stroke="none" 
	d="
M353.152832,851.303589 
	C353.592041,849.944336 354.148163,848.157898 354.795959,848.124023 
	C359.445343,847.881042 364.113342,847.994019 369.755157,847.994019 
	C367.328064,852.656250 365.751465,855.911438 363.967651,859.048767 
	C362.110168,862.315674 358.733337,862.169067 356.902863,858.795166 
	C355.637665,856.463074 354.504425,854.059387 353.152832,851.303589 
z"/>
<path fill="#F8F8F8" opacity="1.000000" stroke="none" 
	d="
M349.802673,793.761841 
	C352.026398,792.928711 353.880890,792.237732 356.000366,791.447998 
	C357.159729,792.885925 358.258698,794.248962 359.907806,796.294312 
	C359.907806,794.692688 360.310760,793.399597 359.842926,792.856689 
	C356.606232,789.099609 358.102325,785.890747 360.580627,782.567017 
	C362.165009,780.442200 363.427094,778.080139 364.909607,775.875488 
	C367.092346,772.629517 370.156189,771.241821 373.960297,772.300415 
	C377.983551,773.419983 379.956421,776.341919 379.976166,780.462830 
	C380.028809,791.446411 380.093201,802.431152 379.977966,813.413696 
	C379.901184,820.733582 374.557465,825.597900 367.438843,825.155396 
	C360.748230,824.739502 356.231201,819.187561 356.892883,812.068787 
	C357.074432,810.115356 357.544891,808.188782 357.918365,806.045837 
	C353.954315,809.073425 350.154022,811.911255 346.428253,814.843811 
	C343.814087,816.901367 341.730286,816.981445 340.148560,813.662231 
	C339.652344,812.620911 338.915100,811.694092 338.284241,810.717346 
	C332.472778,801.718872 332.562805,801.308899 342.462830,796.548157 
	C344.694275,795.475220 347.105194,794.775513 349.802673,793.761841 
M369.354126,806.670471 
	C365.535492,806.617065 362.952393,808.353210 362.023468,812.088867 
	C361.091553,815.836670 363.405853,819.607666 367.070618,820.661499 
	C370.569275,821.667542 374.684662,819.358093 375.776764,815.775757 
	C376.963684,811.882446 374.989960,808.720642 369.354126,806.670471 
M373.231018,775.983765 
	C371.481873,776.833130 369.014221,777.271423 368.216705,778.665222 
	C367.606384,779.731873 368.679443,783.043457 369.771667,783.493774 
	C371.302704,784.124878 373.546783,783.026367 375.485809,782.667725 
	C375.001678,780.526489 374.517548,778.385315 373.231018,775.983765 
z"/>
<path fill="#F8F8F8" opacity="1.000000" stroke="none" 
	d="
M346.213165,761.760254 
	C351.805115,766.398499 357.097504,770.836914 362.702484,775.537537 
	C360.382324,779.116516 358.446106,782.103271 355.943451,785.963745 
	C349.236969,782.638733 342.654053,779.358887 336.055359,776.111206 
	C333.405945,774.807251 333.503387,773.121399 335.038940,770.936768 
	C336.940704,768.231140 338.802277,765.478088 340.425903,762.601501 
	C341.949768,759.901550 343.642761,759.584473 346.213165,761.760254 
z"/>
<path fill="#080808" opacity="1.000000" stroke="none" 
	d="
M369.764465,806.735962 
	C374.989960,808.720642 376.963684,811.882446 375.776764,815.775757 
	C374.684662,819.358093 370.569275,821.667542 367.070618,820.661499 
	C363.405853,819.607666 361.091553,815.836670 362.023468,812.088867 
	C362.952393,808.353210 365.535492,806.617065 369.764465,806.735962 
z"/>
<path fill="#080808" opacity="1.000000" stroke="none" 
	d="
M373.632202,776.113892 
	C374.517548,778.385315 375.001678,780.526489 375.485840,782.667725 
	C373.546783,783.026367 371.302704,784.124878 369.771667,783.493774 
	C368.679443,783.043457 367.606384,779.731873 368.216705,778.665222 
	C369.014221,777.271423 371.481873,776.833130 373.632202,776.113892 
z"/>
</svg>